<svg id="Out_line" height="512" style="fill: #95e1d3; stroke: #95e1d3;" viewBox="0 0 512 512" width="512" xmlns="http://www.w3.org/2000/svg"
     data-name="Out line">
    <path d="m388 296h-264a20 20 0 0 0 0 40h8.68555l75.31445 75.31348v36.68652a7.99912 7.99912 0 0 0 4.42188 7.15527l80 40a7.99951 7.99951 0 0 0 11.57812-7.15527v-76.68652l75.31445-75.31348h8.68555a20 20 0 0 0 0-40zm-95.31445 104h-36.68555v16h32v59.05566l-64-32v-35.05566a8.00235 8.00235 0 0 0 -2.34277-5.65723l-66.34278-66.34277h201.3711zm95.31445-80h-264a4 4 0 0 1 0-8h264a4 4 0 0 1 0 8z"/>
    <path d="m104 264h16v16h16v-88.667a48.07781 48.07781 0 0 0 40-47.333 8.00039 8.00039 0 0 0 -8-8h-32a16.01833 16.01833 0 0 1 16-16h80v40a8.00039 8.00039 0 0 0 8 8h40v112h16v-120a8.00235 8.00235 0 0 0 -2.34277-5.65723l-48-48a8.00235 8.00235 0 0 0 -5.65723-2.34277h-88a32.03667 32.03667 0 0 0 -32 32v4.68555l-32.51416 32.51416a7.99566 7.99566 0 0 0 -7.48584-5.19971h-64v16h56v64h-56v16h64a8.00039 8.00039 0 0 0 8-8v-4.68555l10.34277 10.34278a8.00235 8.00235 0 0 0 5.65723 2.34277zm144-132.68652 20.68652 20.68652h-20.68652zm-160 64.001 43.31348-43.31448h27.67382a32.05644 32.05644 0 0 1 -30.9873 24 8.00039 8.00039 0 0 0 -8 8v16a16.01833 16.01833 0 0 1 -16 16v16a31.792 31.792 0 0 0 16-4.30518v20.30518h-12.68652l-19.31348-19.31445z"/>
    <path d="m496 136v-16h-48a7.99566 7.99566 0 0 0 -7.48584 5.19971l-32.51416-32.51416v-20.68555a8.00235 8.00235 0 0 0 -2.34277-5.65723l-48-48a8.00235 8.00235 0 0 0 -5.65723-2.34277h-88a32.03667 32.03667 0 0 0 -32 32v40h16v-40a16.01833 16.01833 0 0 1 16-16h80v40a8.00039 8.00039 0 0 0 8 8h40v8h-32a8.00039 8.00039 0 0 0 -8 8 48.07781 48.07781 0 0 0 40 47.333v80.667a16.01833 16.01833 0 0 1 -16 16h-64v16h64a32.03667 32.03667 0 0 0 32-32v-8h16a8.00235 8.00235 0 0 0 5.65723-2.34277l10.34277-10.34278v4.68555a8.00039 8.00039 0 0 0 8 8h48v-16h-40v-64zm-136-92.68652 20.68652 20.68652h-20.68652zm60.68652 156.68652h-12.68652v-20.30518a31.792 31.792 0 0 0 16 4.30518v-16a16.01833 16.01833 0 0 1 -16-16v-16a8.00039 8.00039 0 0 0 -8-8 32.05644 32.05644 0 0 1 -30.9873-24h27.67382l43.31348 43.31445v33.3711z"/>
    <path d="m184 136h16v16h-16z"/>
    <path d="m184 176h48v16h-48z"/>
    <path d="m248 176h16v16h-16z"/>
    <path d="m232 208h32v16h-32z"/>
    <path d="m152 208h64v16h-64z"/>
    <path d="m152 240h48v16h-48z"/>
    <path d="m216 240h32v16h-32z"/>
    <path d="m224 272h32v16h-32z"/>
    <path d="m280 48h32v16h-32z"/>
    <path d="m312 88h32v16h-32z"/>
    <path d="m280 88h16v16h-16z"/>
    <path d="m288 120h40v16h-40z"/>
    <path d="m312 152h48v16h-48z"/>
    <path d="m336 184h32v16h-32z"/>
</svg>