<svg id="icons" enable-background="new 0 0 64 64" style="fill: #95e1d3; stroke: #95e1d3;" height="512" viewBox="0 0 64 64" width="512"
     xmlns="http://www.w3.org/2000/svg">
    <path d="m8 16c4.411 0 8-3.589 8-8s-3.589-8-8-8-8 3.589-8 8 3.589 8 8 8zm-2.904-2.754c.336-1.296 1.516-2.246 2.903-2.246 1.388 0 2.568.95 2.903 2.247-.86.479-1.849.753-2.902.753-1.054 0-2.043-.275-2.904-.754zm2.904-4.246c-.552 0-1-.448-1-1s.448-1 1-1 1 .448 1 1-.448 1-1 1zm0-7c3.309 0 6 2.691 6 6 0 1.496-.554 2.863-1.463 3.915-.436-.945-1.161-1.719-2.054-2.234.326-.48.517-1.058.517-1.681 0-1.654-1.346-3-3-3s-3 1.346-3 3c0 .622.19 1.2.517 1.681-.894.515-1.619 1.288-2.055 2.232-.908-1.052-1.462-2.418-1.462-3.913 0-3.309 2.691-6 6-6z"/>
    <path d="m8 64c4.411 0 8-3.589 8-8s-3.589-8-8-8-8 3.589-8 8 3.589 8 8 8zm-2.904-2.754c.336-1.296 1.516-2.246 2.903-2.246 1.388 0 2.568.95 2.903 2.247-.86.479-1.849.753-2.902.753-1.054 0-2.043-.275-2.904-.754zm2.904-4.246c-.552 0-1-.448-1-1s.448-1 1-1 1 .448 1 1-.448 1-1 1zm0-7c3.309 0 6 2.691 6 6 0 1.496-.554 2.863-1.463 3.915-.436-.945-1.161-1.719-2.054-2.234.326-.48.517-1.058.517-1.681 0-1.654-1.346-3-3-3s-3 1.346-3 3c0 .622.19 1.2.517 1.681-.894.515-1.619 1.288-2.055 2.232-.908-1.052-1.462-2.418-1.462-3.913 0-3.309 2.691-6 6-6z"/>
    <path d="m56 0c-4.411 0-8 3.589-8 8s3.589 8 8 8 8-3.589 8-8-3.589-8-8-8zm-2.904 13.246c.336-1.296 1.516-2.246 2.903-2.246 1.388 0 2.568.95 2.903 2.247-.86.479-1.849.753-2.902.753-1.054 0-2.043-.275-2.904-.754zm2.904-4.246c-.552 0-1-.448-1-1s.448-1 1-1 1 .448 1 1-.448 1-1 1zm4.537 2.915c-.436-.945-1.161-1.719-2.054-2.234.326-.48.517-1.058.517-1.681 0-1.654-1.346-3-3-3s-3 1.346-3 3c0 .622.19 1.2.517 1.681-.894.515-1.619 1.288-2.055 2.232-.908-1.052-1.462-2.418-1.462-3.913 0-3.309 2.691-6 6-6s6 2.691 6 6c0 1.496-.554 2.863-1.463 3.915z"/>
    <path d="m24 32c0 4.411 3.589 8 8 8s8-3.589 8-8-3.589-8-8-8-8 3.589-8 8zm5.096 5.246c.336-1.296 1.516-2.246 2.903-2.246 1.388 0 2.568.95 2.903 2.247-.86.479-1.849.753-2.902.753-1.054 0-2.043-.275-2.904-.754zm2.904-4.246c-.552 0-1-.448-1-1s.448-1 1-1 1 .448 1 1-.448 1-1 1zm0-7c3.309 0 6 2.691 6 6 0 1.496-.554 2.863-1.463 3.915-.436-.945-1.161-1.719-2.054-2.234.326-.48.517-1.058.517-1.681 0-1.654-1.346-3-3-3s-3 1.346-3 3c0 .622.19 1.2.517 1.681-.894.515-1.619 1.288-2.055 2.232-.908-1.052-1.462-2.418-1.462-3.913 0-3.309 2.691-6 6-6z"/>
    <path d="m56 48c-4.411 0-8 3.589-8 8s3.589 8 8 8 8-3.589 8-8-3.589-8-8-8zm-2.904 13.246c.336-1.296 1.516-2.246 2.903-2.246 1.388 0 2.568.95 2.903 2.247-.86.479-1.849.753-2.902.753-1.054 0-2.043-.275-2.904-.754zm2.904-4.246c-.552 0-1-.448-1-1s.448-1 1-1 1 .448 1 1-.448 1-1 1zm4.537 2.915c-.436-.945-1.161-1.719-2.054-2.234.326-.48.517-1.058.517-1.681 0-1.654-1.346-3-3-3s-3 1.346-3 3c0 .622.19 1.2.517 1.681-.894.515-1.619 1.288-2.055 2.232-.908-1.052-1.462-2.418-1.462-3.913 0-3.309 2.691-6 6-6s6 2.691 6 6c0 1.496-.554 2.863-1.463 3.915z"/>
    <path d="m48.707 15.294c-.391-.391-1.023-.391-1.414 0l-8.004 8.003c-.391.391-.391 1.023 0 1.414.195.195.451.293.707.293s.512-.098.707-.293l8.004-8.003c.391-.391.391-1.023 0-1.414z"/>
    <path d="m48 48.999c.256 0 .512-.098.707-.293.391-.391.391-1.023 0-1.414l-8.004-8.003c-.391-.391-1.023-.391-1.414 0s-.391 1.023 0 1.414l8.004 8.003c.195.195.451.293.707.293z"/>
    <path d="m15.293 15.294c-.391.391-.391 1.023 0 1.414l8.004 8.003c.195.195.451.293.707.293s.512-.098.707-.293c.391-.391.391-1.023 0-1.414l-8.004-8.003c-.391-.391-1.023-.391-1.414 0z"/>
    <path d="m15.293 48.706c.195.195.451.293.707.293s.512-.098.707-.293l8.004-8.003c.391-.391.391-1.023 0-1.414s-1.023-.391-1.414 0l-8.004 8.003c-.391.391-.391 1.023 0 1.414z"/>
    <path d="m7 19v26c0 .553.447 1 1 1s1-.447 1-1v-26c0-.553-.447-1-1-1s-1 .447-1 1z"/>
    <path d="m19 57h26c.553 0 1-.447 1-1s-.447-1-1-1h-26c-.553 0-1 .447-1 1s.447 1 1 1z"/>
    <path d="m18 8c0 .553.447 1 1 1h26c.553 0 1-.447 1-1s-.447-1-1-1h-26c-.553 0-1 .447-1 1z"/>
    <path d="m57 45v-26c0-.553-.447-1-1-1s-1 .447-1 1v26c0 .553.447 1 1 1s1-.447 1-1z"/>
</svg>