<svg height="480pt" viewBox="0 0 480 480" style="fill: #95e1d3; stroke: #95e1d3;" width="480pt" xmlns="http://www.w3.org/2000/svg">
    <path d="m456 80h-88v-56c0-13.253906-10.746094-24-24-24h-208c-13.253906 0-24 10.746094-24 24v136h-88c-13.253906 0-24 10.746094-24 24v288c0 4.417969 3.582031 8 8 8s8-3.582031 8-8v-88h32c4.417969 0 8-3.582031 8-8s-3.582031-8-8-8h-32v-16h56c4.417969 0 8-3.582031 8-8v-32c0-4.417969-3.582031-8-8-8h-56v-120c0-4.417969 3.582031-8 8-8h88v48c0 4.417969 3.582031 8 8 8s8-3.582031 8-8v-200c0-4.417969 3.582031-8 8-8h208c4.417969 0 8 3.582031 8 8v144c0 4.417969 3.582031 8 8 8s8-3.582031 8-8v-72h88c4.417969 0 8 3.582031 8 8v256h-56c-4.417969 0-8 3.582031-8 8v32c0 4.417969 3.582031 8 8 8h56v64c0 4.417969 3.582031 8 8 8s8-3.582031 8-8v-368c0-13.253906-10.746094-24-24-24zm-392 240v16h-48v-16zm352 72v-16h48v16zm0 0"/>
    <path d="m328 240c-4.417969 0-8 3.582031-8 8v32c0 4.417969 3.582031 8 8 8h33.359375c4.417969 0 8-3.582031 8-8s-3.582031-8-8-8h-14.078125l84.71875-84.71875v15.359375c0 4.417969 3.582031 8 8 8s8-3.582031 8-8v-34.640625c0-4.417969-3.582031-8-8-8h-33.359375c-4.417969 0-8 3.582031-8 8s3.582031 8 8 8h14.078125l-84.71875 84.71875v-12.71875c0-4.417969-3.582031-8-8-8zm0 0"/>
    <path d="m110.640625 312c0 4.417969 3.582031 8 8 8h33.359375c4.417969 0 8-3.582031 8-8v-32c0-4.417969-3.582031-8-8-8s-8 3.582031-8 8v12.71875l-84.71875-84.71875h14.078125c4.417969 0 8-3.582031 8-8s-3.582031-8-8-8h-33.359375c-4.417969 0-8 3.582031-8 8v34.640625c0 4.417969 3.582031 8 8 8s8-3.582031 8-8v-15.359375l84.71875 84.71875h-14.078125c-4.417969 0-8 3.582031-8 8zm0 0"/>
    <path d="m160 88h32c4.417969 0 8-3.582031 8-8v-32c0-4.417969-3.582031-8-8-8h-32c-4.417969 0-8 3.582031-8 8v32c0 4.417969 3.582031 8 8 8zm8-32h16v16h-16zm0 0"/>
    <path d="m256 56c4.417969 0 8-3.582031 8-8s-3.582031-8-8-8h-32c-4.417969 0-8 3.582031-8 8v32c0 4.417969 3.582031 8 8 8h32c4.417969 0 8-3.582031 8-8s-3.582031-8-8-8h-24v-16zm0 0"/>
    <path d="m320 40h-32c-4.417969 0-8 3.582031-8 8v32c0 4.417969 3.582031 8 8 8h32c4.417969 0 8-3.582031 8-8v-32c0-4.417969-3.582031-8-8-8zm-8 32h-16v-16h16zm0 0"/>
    <path d="m152 144c0 4.417969 3.582031 8 8 8h32c4.417969 0 8-3.582031 8-8v-32c0-4.417969-3.582031-8-8-8h-32c-4.417969 0-8 3.582031-8 8zm16-24h16v16h-16zm0 0"/>
    <path d="m216 144c0 4.417969 3.582031 8 8 8h96c4.417969 0 8-3.582031 8-8v-32c0-4.417969-3.582031-8-8-8h-96c-4.417969 0-8 3.582031-8 8zm16-24h80v16h-80zm0 0"/>
    <path d="m152 208c0 4.417969 3.582031 8 8 8h32c4.417969 0 8-3.582031 8-8s-3.582031-8-8-8h-24v-16h24c4.417969 0 8-3.582031 8-8s-3.582031-8-8-8h-32c-4.417969 0-8 3.582031-8 8zm0 0"/>
    <path d="m216 208c0 4.417969 3.582031 8 8 8s8-3.582031 8-8v-24h16v24c0 4.417969 3.582031 8 8 8s8-3.582031 8-8v-32c0-4.417969-3.582031-8-8-8h-32c-4.417969 0-8 3.582031-8 8zm0 0"/>
    <path d="m80 400h-32c-4.417969 0-8 3.582031-8 8s3.582031 8 8 8h32c4.417969 0 8-3.582031 8-8s-3.582031-8-8-8zm0 0"/>
    <path d="m440 312c4.417969 0 8-3.582031 8-8s-3.582031-8-8-8h-32c-4.417969 0-8 3.582031-8 8v32c0 4.417969 3.582031 8 8 8h32c4.417969 0 8-3.582031 8-8s-3.582031-8-8-8h-24v-16zm0 0"/>
    <path d="m376 320h-72v-48c0-4.417969-3.582031-8-8-8h-112c-4.417969 0-8 3.582031-8 8v96h-56c-4.417969 0-8 3.582031-8 8v96c0 4.417969 3.582031 8 8 8s8-3.582031 8-8v-88h48v88c0 4.417969 3.582031 8 8 8s8-3.582031 8-8v-192h96v192c0 4.417969 3.582031 8 8 8s8-3.582031 8-8v-136h64v136c0 4.417969 3.582031 8 8 8s8-3.582031 8-8v-144c0-4.417969-3.582031-8-8-8zm0 0"/>
    <path d="m344 352h-16c-4.417969 0-8 3.582031-8 8s3.582031 8 8 8h16c4.417969 0 8-3.582031 8-8s-3.582031-8-8-8zm0 0"/>
    <path d="m352 392c0 4.417969-3.582031 8-8 8s-8-3.582031-8-8 3.582031-8 8-8 8 3.582031 8 8zm0 0"/>
    <path d="m344 416h-16c-4.417969 0-8 3.582031-8 8s3.582031 8 8 8h16c4.417969 0 8-3.582031 8-8s-3.582031-8-8-8zm0 0"/>
    <path d="m160 408c0 4.417969-3.582031 8-8 8s-8-3.582031-8-8 3.582031-8 8-8 8 3.582031 8 8zm0 0"/>
    <path d="m160 440c0 4.417969-3.582031 8-8 8s-8-3.582031-8-8 3.582031-8 8-8 8 3.582031 8 8zm0 0"/>
    <path d="m216 320h16c4.417969 0 8-3.582031 8-8s-3.582031-8-8-8h-16c-4.417969 0-8 3.582031-8 8s3.582031 8 8 8zm0 0"/>
    <path d="m272 312c0 4.417969-3.582031 8-8 8s-8-3.582031-8-8 3.582031-8 8-8 8 3.582031 8 8zm0 0"/>
    <path d="m216 352h16c4.417969 0 8-3.582031 8-8s-3.582031-8-8-8h-16c-4.417969 0-8 3.582031-8 8s3.582031 8 8 8zm0 0"/>
    <path d="m272 344c0 4.417969-3.582031 8-8 8s-8-3.582031-8-8 3.582031-8 8-8 8 3.582031 8 8zm0 0"/>
    <path d="m240 376c0 4.417969-3.582031 8-8 8s-8-3.582031-8-8 3.582031-8 8-8 8 3.582031 8 8zm0 0"/>
    <path d="m272 376c0 4.417969-3.582031 8-8 8s-8-3.582031-8-8 3.582031-8 8-8 8 3.582031 8 8zm0 0"/>
    <path d="m264 400h-16c-4.417969 0-8 3.582031-8 8s3.582031 8 8 8h16c4.417969 0 8-3.582031 8-8s-3.582031-8-8-8zm0 0"/>
    <path d="m224 408c0 4.417969-3.582031 8-8 8s-8-3.582031-8-8 3.582031-8 8-8 8 3.582031 8 8zm0 0"/>
    <path d="m248 432h-16c-8.835938 0-16 7.164062-16 16v24c0 4.417969 3.582031 8 8 8s8-3.582031 8-8v-24h16v24c0 4.417969 3.582031 8 8 8s8-3.582031 8-8v-24c0-8.835938-7.164062-16-16-16zm0 0"/>
</svg>