<?xml version="1.0" encoding="iso-8859-1"?>
<!-- Generator: Adobe Illustrator 16.0.0, SVG Export Plug-In . SVG Version: 6.00 Build 0)  -->
<!DOCTYPE svg PUBLIC "-//W3C//DTD SVG 1.1//EN" "http://www.w3.org/Graphics/SVG/1.1/DTD/svg11.dtd">
<svg version="1.1" id="Capa_1" xmlns="http://www.w3.org/2000/svg" xmlns:xlink="http://www.w3.org/1999/xlink" x="0px" y="0px"
	 width="50.742px" height="50.742px" viewBox="0 0 50.742 50.742" style="fill: #95e1d3; stroke: #95e1d3;"
	 xml:space="preserve">
<g>
	<g>
		<path d="M46.559,10.811c-0.391-0.391-1.022-0.391-1.414,0l-1.852,1.852V9.104c0-0.553-0.447-1-1-1H1c-0.553,0-1,0.447-1,1v32.535
			c0,0.553,0.447,1,1,1h41.294c0.554,0,1-0.447,1-1v-18.37l7.155-7.155c0.188-0.188,0.293-0.442,0.293-0.707
			c0-0.266-0.105-0.52-0.293-0.707L46.559,10.811z M35.014,25.297c0.023,0.515,0.437,0.927,0.951,0.951l2.932,0.139v11.771h-34.5
			V15.87h34.5v1.189l-3.769,3.77c-0.198,0.199-0.306,0.474-0.292,0.755L35.014,25.297z M39.33,24.404l-2.361-0.111l-0.113-2.362
			l8.998-8.998l2.476,2.475L39.33,24.404z"/>
		<path d="M33.496,19.433H7.663c-0.553,0-1,0.447-1,1v4.991c0,0.554,0.447,1,1,1h25.833c0.553,0,1-0.446,1-1v-4.991
			C34.496,19.879,34.049,19.433,33.496,19.433z M32.496,24.424H8.663v-2.992h23.833V24.424z"/>
		<path d="M15.83,27.933H7.663c-0.553,0-1,0.446-1,1v7.166c0,0.554,0.447,1,1,1h8.167c0.553,0,1-0.446,1-1v-7.166
			C16.83,28.379,16.383,27.933,15.83,27.933z M14.83,35.099H8.663v-5.166h6.167V35.099z"/>
		<path d="M33.496,27.933h-14c-0.553,0-1,0.446-1,1s0.447,1,1,1h14c0.553,0,1-0.446,1-1S34.049,27.933,33.496,27.933z"/>
		<path d="M33.496,32.599h-14c-0.553,0-1,0.446-1,1s0.447,1,1,1h14c0.553,0,1-0.446,1-1S34.049,32.599,33.496,32.599z"/>
	</g>
</g>
<g>
</g>
<g>
</g>
<g>
</g>
<g>
</g>
<g>
</g>
<g>
</g>
<g>
</g>
<g>
</g>
<g>
</g>
<g>
</g>
<g>
</g>
<g>
</g>
<g>
</g>
<g>
</g>
<g>
</g>
</svg>
