<?xml version="1.0" encoding="utf-8"?>
<!-- Generator: Adobe Illustrator 22.0.1, SVG Export Plug-In . SVG Version: 6.00 Build 0)  -->
<svg version="1.1" id="Layer_1" xmlns="http://www.w3.org/2000/svg" xmlns:xlink="http://www.w3.org/1999/xlink" x="0px" y="0px"
	 viewBox="0 0 62 53.9" style="enable-background:new 0 0 62 53.9;" xml:space="preserve">
<style type="text/css">
	.st0{fill:none;stroke:#000000;stroke-width:2;stroke-miterlimit:10;}
	.st1{fill:none;stroke:#000000;stroke-width:0.1905;stroke-miterlimit:10;}
	.st2{fill:none;stroke:#000000;stroke-miterlimit:10;}
</style>
<g transform="rotate(0 0 0)">
	<g transform="matrix(1 0 0 1 0 0)">
		<g>
			<path d="M31,0L0,53.9h62L31,0z M39.3,44.2v1.4H26.6v-1.4H39.3z M26.6,42.3v-1.4h12.7v1.4C39.3,42.3,26.6,42.3,26.6,42.3z
				 M39.3,47.6V49H26.6v-1.4H39.3z M47.9,32.3l0.8,1.4h-5.4v-1.4H47.9z M43.3,30.3v-1.4H46l0.8,1.4H43.3z M49.9,35.6l0.8,1.4h-7.4
				v-1.4H49.9z M51.8,39l0.8,1.4h-9.3V39H51.8z M53.7,42.4l0.8,1.4H43.3v-1.4H53.7z M55.8,45.8l0.8,1.4H43.3v-1.4H55.8z M43.8,25.1
				l-3.5,0v12.1h-7.4v-1.8l-7.4,0.1v-1.4l7.4,0.1V32L25.5,32v-1.4l7.4,0.1v-1.9l-7.4-0.1v-1.4l7.4,0.1v-1.9l-7.4-0.1v-1.6l7.4,0
				v-1.9l-10.2-0.1l0,30.9h-2.2v-1.7H3.4l0.8-1.4h16.3v-1.9H5.4l0.8-1.4h14.3v-3.4h-4v-6.8h-4.5L31,2.9L43.8,25.1z M9.3,40.6
				l0.8-1.4h4.2v1.4H9.3z"/>
		</g>
	</g>
</g>
<path class="st0" d="M28.1,21.7"/>
<line class="st0" x1="33.5" y1="21.9" x2="33.5" y2="38.4"/>
<line class="st1" x1="37.2" y1="37.7" x2="37.2" y2="34.7"/>
<line class="st1" x1="35.9" y1="35.1" x2="38.6" y2="35.1"/>
<line class="st1" x1="36.5" y1="34.7" x2="36.1" y2="35.5"/>
<line class="st1" x1="38.1" y1="34.7" x2="37.7" y2="35.5"/>
<line class="st1" x1="38.5" y1="34.7" x2="38.1" y2="35.6"/>
<line class="st1" x1="36.8" y1="34.8" x2="36.5" y2="35.5"/>
<line class="st2" x1="18.8" y1="44.2" x2="18.8" y2="52"/>
<line class="st1" x1="18.7" y1="43.1" x2="18.7" y2="40"/>
<line class="st1" x1="17.4" y1="40.5" x2="20.1" y2="40.5"/>
<line class="st1" x1="18" y1="40" x2="17.6" y2="40.9"/>
<line class="st1" x1="19.6" y1="40" x2="19.2" y2="40.9"/>
<line class="st1" x1="20" y1="40.1" x2="19.6" y2="40.9"/>
<line class="st1" x1="18.3" y1="40.2" x2="18" y2="40.9"/>
</svg>
